<svg xmlns="http://www.w3.org/2000/svg" viewBox="0 0 360 360" xmlns:c2pa="http://c2pa.org/manifest"><metadata><c2pa:manifest>AAAWgmp1bWIAAAAeanVtZGMycGEAEQAQgAAAqgA4m3EDYzJwYQAAABZcanVtYgAAAEdqdW1kYzJtYQARABCAAACqADibcQN1cm46YzJwYTo1ZjkyMGFkNC0zZGRhLTRhZDUtOTYxZi03OTZiMzU4OTBkOTEAAAADl2p1bWIAAAApanVtZGMyYXMAEQAQgAAAqgA4m3EDYzJwYS5hc3NlcnRpb25zAAAAALxqdW1iAAAARGp1bWRjYm9yABEAEIAAAKoAOJtxE2MycGEuaW5ncmVkaWVudC52MwAAAAAYYzJzaHuHKIj/9XYkK1EW9RGNQHwAAABwY2JvcqNpZGM6Zm9ybWF0bWltYWdlL3N2Zyt4bWxqaW5zdGFuY2VJRHgseG1wOmlpZDo1MTgyMDQyNC0xMDhiLTRhOTItYWQ1Ny1iOGFmZGQ1Y2U4MTlscmVsYXRpb25zaGlwaHBhcmVudE9mAAAB4mp1bWIAAABBanVtZGNib3IAEQAQgAAAqgA4m3ETYzJwYS5hY3Rpb25zLnYyAAAAABhjMnNo/MEfgSJORUzywz4LG6hBPgAAAZljYm9yomdhY3Rpb25zgqJmYWN0aW9ua2MycGEub3BlbmVkanBhcmFtZXRlcnOha2luZ3JlZGllbnRzgaJjdXJseC1zZWxmI2p1bWJmPWMycGEuYXNzZXJ0aW9ucy9jMnBhLmluZ3JlZGllbnQudjNkaGFzaFggjD83Cyq4cIZbRyeDLZSK8NjQuMJU05xih4k6sHf3AaekZmFjdGlvbngdY29tLmFudGhyb3BpYy5jbGF1ZGUucHJvdmlkZWRqcGFyYW1ldGVyc6F4H2NvbS5hbnRocm9waWMub3JpZ2luLWNvbmZpZGVuY2VndW5rbm93bmtkZXNjcmlwdGlvbnhmQ2xhdWRlIHByb3ZpZGVkIHRoaXMgZmlsZSBhdCB0aGUgcmVxdWVzdCBvZiBhIHVzZXIgYW5kIG1heSBoYXZlIGNyZWF0ZWQgb3IgbW9kaWZpZWQgdGhlIGZpbGUgY29udGVudHMubXNvZnR3YXJlQWdlbnShZG5hbWVmQ2xhdWRlcmFsbEFjdGlvbnNJbmNsdWRlZPUAAADIanVtYgAAAEBqdW1kY2JvcgARABCAAACqADibcRNjMnBhLmhhc2guZGF0YQAAAAAYYzJzaKC86EDWWUf7gqRAu5itbf8AAACAY2JvcqVjYWxnZnNoYTI1NmNwYWRNAAAAAAAAAAAAAAAAAGRoYXNoWCAhMRpO76ZD7Tdkmua8u6KXTVYuLk5w5vwrhwy1qkwrmGRuYW1lbmp1bWJmIG1hbmlmZXN0amV4Y2x1c2lvbnOBomVzdGFydBh9Zmxlbmd0aBkeBAAAAj5qdW1iAAAAJ2p1bWRjMmNsABEAEIAAAKoAOJtxA2MycGEuY2xhaW0udjIAAAACD2Nib3KlY2FsZ2ZzaGEyNTZpc2lnbmF0dXJleE1zZWxmI2p1bWJmPS9jMnBhL3VybjpjMnBhOjVmOTIwYWQ0LTNkZGEtNGFkNS05NjFmLTc5NmIzNTg5MGQ5MS9jMnBhLnNpZ25hdHVyZWppbnN0YW5jZUlEeCx4bXA6aWlkOjkxY2NjODQ1LTlhOWEtNDgzMC1iNjkxLWI1YTE5N2MwZTk0OXJjcmVhdGVkX2Fzc2VydGlvbnODomN1cmx4LXNlbGYjanVtYmY9YzJwYS5hc3NlcnRpb25zL2MycGEuaW5ncmVkaWVudC52M2RoYXNoWCCMPzcLKrhwhltHJ4MtlIrw2NC4wlTTnGKHiTqwd/cBp6JjdXJseCpzZWxmI2p1bWJmPWMycGEuYXNzZXJ0aW9ucy9jMnBhLmFjdGlvbnMudjJkaGFzaFggHPeVlAcGreF6mZ9mcYj79QYiZYrI/SMy5vFzi8v8hnWiY3VybHgpc2VsZiNqdW1iZj1jMnBhLmFzc2VydGlvbnMvYzJwYS5oYXNoLmRhdGFkaGFzaFggsyumz7nJcSmLEW8CtSElFE1wewabIsK+ErckIHLIgRZ0Y2xhaW1fZ2VuZXJhdG9yX2luZm+jZG5hbWVvQW50aHJvcGljIEZpbGVzZ3ZlcnNpb25lMS4wLjBrc3BlY1ZlcnNpb25lMi40LjAAABA4anVtYgAAAChqdW1kYzJjcwARABCAAACqADibcQNjMnBhLnNpZ25hdHVyZQAAABAIY2JvctKEWQISogEmGCFZAgowggIGMIIBjaADAgECAhRA5aAK7sI50L64g/oGQgU9Z1UTADAKBggqhkjOPQQDAzBJMRcwFQYDVQQKEw5BbnRocm9waWMsIFBCQzEuMCwGA1UEAxMlQW50aHJvcGljIENvbnRlbnQgQ3JlZGVudGlhbHMgUm9vdCBDQTAeFw0yNjA4MDcxODQzNTZaFw0yODA4MDYxOTQzNTZaMEQxFzAVBgNVBAoTDkFudGhyb3BpYywgUEJDMSkwJwYDVQQDEyBBbnRocm9waWMgQ2xhdWRlIENvbnRlbnQgU2lnbmluZzBZMBMGByqGSM49AgEGCCqGSM49AwEHA0IABJh6CmvLUBgFFNU0vUKlOVtE6djd17L5SuwX0LemFisBM3dkd/3cyjxFA3Qo5S46fX0/ihY0VZ7mfb9KF703t5OjWDBWMA4GA1UdDwEB/wQEAwIHgDAVBgNVHSUEDjAMBgorBgEEAYPoXgIBMAwGA1UdEwEB/wQCMAAwHwYDVR0jBBgwFoAUzlHiBIFOZFsj+OPEz5o+nMHXXMIwCgYIKoZIzj0EAwMDZwAwZAIwMXMdFJ4BetLLVY7ORuE9noqbbAZOZn/aArXyTwFAZfKrPzxF2vPoJNf1+UCdg1XGAjBwX1zd9WGqYkqmL5SFqw1QySjr1zJfpJM9+1rdDwSPLMOPOjKuiXjoU/pUUeG9RwmhY3BhZFkNngAAAAAAAAAAAAAAAAAAAAAAAAAAAAAAAAAAAAAAAAAAAAAAAAAAAAAAAAAAAAAAAAAAAAAAAAAAAAAAAAAAAAAAAAAAAAAAAAAAAAAAAAAAAAAAAAAAAAAAAAAAAAAAAAAAAAAAAAAAAAAAAAAAAAAAAAAAAAAAAAAAAAAAAAAAAAAAAAAAAAAAAAAAAAAAAAAAAAAAAAAAAAAAAAAAAAAAAAAAAAAAAAAAAAAAAAAAAAAAAAAAAAAAAAAAAAAAAAAAAAAAAAAAAAAAAAAAAAAAAAAAAAAAAAAAAAAAAAAAAAAAAAAAAAAAAAAAAAAAAAAAAAAAAAAAAAAAAAAAAAAAAAAAAAAAAAAAAAAAAAAAAAAAAAAAAAAAAAAAAAAAAAAAAAAAAAAAAAAAAAAAAAAAAAAAAAAAAAAAAAAAAAAAAAAAAAAAAAAAAAAAAAAAAAAAAAAAAAAAAAAAAAAAAAAAAAAAAAAAAAAAAAAAAAAAAAAAAAAAAAAAAAAAAAAAAAAAAAAAAAAAAAAAAAAAAAAAAAAAAAAAAAAAAAAAAAAAAAAAAAAAAAAAAAAAAAAAAAAAAAAAAAAAAAAAAAAAAAAAAAAAAAAAAAAAAAAAAAAAAAAAAAAAAAAAAAAAAAAAAAAAAAAAAAAAAAAAAAAAAAAAAAAAAAAAAAAAAAAAAAAAAAAAAAAAAAAAAAAAAAAAAAAAAAAAAAAAAAAAAAAAAAAAAAAAAAAAAAAAAAAAAAAAAAAAAAAAAAAAAAAAAAAAAAAAAAAAAAAAAAAAAAAAAAAAAAAAAAAAAAAAAAAAAAAAAAAAAAAAAAAAAAAAAAAAAAAAAAAAAAAAAAAAAAAAAAAAAAAAAAAAAAAAAAAAAAAAAAAAAAAAAAAAAAAAAAAAAAAAAAAAAAAAAAAAAAAAAAAAAAAAAAAAAAAAAAAAAAAAAAAAAAAAAAAAAAAAAAAAAAAAAAAAAAAAAAAAAAAAAAAAAAAAAAAAAAAAAAAAAAAAAAAAAAAAAAAAAAAAAAAAAAAAAAAAAAAAAAAAAAAAAAAAAAAAAAAAAAAAAAAAAAAAAAAAAAAAAAAAAAAAAAAAAAAAAAAAAAAAAAAAAAAAAAAAAAAAAAAAAAAAAAAAAAAAAAAAAAAAAAAAAAAAAAAAAAAAAAAAAAAAAAAAAAAAAAAAAAAAAAAAAAAAAAAAAAAAAAAAAAAAAAAAAAAAAAAAAAAAAAAAAAAAAAAAAAAAAAAAAAAAAAAAAAAAAAAAAAAAAAAAAAAAAAAAAAAAAAAAAAAAAAAAAAAAAAAAAAAAAAAAAAAAAAAAAAAAAAAAAAAAAAAAAAAAAAAAAAAAAAAAAAAAAAAAAAAAAAAAAAAAAAAAAAAAAAAAAAAAAAAAAAAAAAAAAAAAAAAAAAAAAAAAAAAAAAAAAAAAAAAAAAAAAAAAAAAAAAAAAAAAAAAAAAAAAAAAAAAAAAAAAAAAAAAAAAAAAAAAAAAAAAAAAAAAAAAAAAAAAAAAAAAAAAAAAAAAAAAAAAAAAAAAAAAAAAAAAAAAAAAAAAAAAAAAAAAAAAAAAAAAAAAAAAAAAAAAAAAAAAAAAAAAAAAAAAAAAAAAAAAAAAAAAAAAAAAAAAAAAAAAAAAAAAAAAAAAAAAAAAAAAAAAAAAAAAAAAAAAAAAAAAAAAAAAAAAAAAAAAAAAAAAAAAAAAAAAAAAAAAAAAAAAAAAAAAAAAAAAAAAAAAAAAAAAAAAAAAAAAAAAAAAAAAAAAAAAAAAAAAAAAAAAAAAAAAAAAAAAAAAAAAAAAAAAAAAAAAAAAAAAAAAAAAAAAAAAAAAAAAAAAAAAAAAAAAAAAAAAAAAAAAAAAAAAAAAAAAAAAAAAAAAAAAAAAAAAAAAAAAAAAAAAAAAAAAAAAAAAAAAAAAAAAAAAAAAAAAAAAAAAAAAAAAAAAAAAAAAAAAAAAAAAAAAAAAAAAAAAAAAAAAAAAAAAAAAAAAAAAAAAAAAAAAAAAAAAAAAAAAAAAAAAAAAAAAAAAAAAAAAAAAAAAAAAAAAAAAAAAAAAAAAAAAAAAAAAAAAAAAAAAAAAAAAAAAAAAAAAAAAAAAAAAAAAAAAAAAAAAAAAAAAAAAAAAAAAAAAAAAAAAAAAAAAAAAAAAAAAAAAAAAAAAAAAAAAAAAAAAAAAAAAAAAAAAAAAAAAAAAAAAAAAAAAAAAAAAAAAAAAAAAAAAAAAAAAAAAAAAAAAAAAAAAAAAAAAAAAAAAAAAAAAAAAAAAAAAAAAAAAAAAAAAAAAAAAAAAAAAAAAAAAAAAAAAAAAAAAAAAAAAAAAAAAAAAAAAAAAAAAAAAAAAAAAAAAAAAAAAAAAAAAAAAAAAAAAAAAAAAAAAAAAAAAAAAAAAAAAAAAAAAAAAAAAAAAAAAAAAAAAAAAAAAAAAAAAAAAAAAAAAAAAAAAAAAAAAAAAAAAAAAAAAAAAAAAAAAAAAAAAAAAAAAAAAAAAAAAAAAAAAAAAAAAAAAAAAAAAAAAAAAAAAAAAAAAAAAAAAAAAAAAAAAAAAAAAAAAAAAAAAAAAAAAAAAAAAAAAAAAAAAAAAAAAAAAAAAAAAAAAAAAAAAAAAAAAAAAAAAAAAAAAAAAAAAAAAAAAAAAAAAAAAAAAAAAAAAAAAAAAAAAAAAAAAAAAAAAAAAAAAAAAAAAAAAAAAAAAAAAAAAAAAAAAAAAAAAAAAAAAAAAAAAAAAAAAAAAAAAAAAAAAAAAAAAAAAAAAAAAAAAAAAAAAAAAAAAAAAAAAAAAAAAAAAAAAAAAAAAAAAAAAAAAAAAAAAAAAAAAAAAAAAAAAAAAAAAAAAAAAAAAAAAAAAAAAAAAAAAAAAAAAAAAAAAAAAAAAAAAAAAAAAAAAAAAAAAAAAAAAAAAAAAAAAAAAAAAAAAAAAAAAAAAAAAAAAAAAAAAAAAAAAAAAAAAAAAAAAAAAAAAAAAAAAAAAAAAAAAAAAAAAAAAAAAAAAAAAAAAAAAAAAAAAAAAAAAAAAAAAAAAAAAAAAAAAAAAAAAAAAAAAAAAAAAAAAAAAAAAAAAAAAAAAAAAAAAAAAAAAAAAAAAAAAAAAAAAAAAAAAAAAAAAAAAAAAAAAAAAAAAAAAAAAAAAAAAAAAAAAAAAAAAAAAAAAAAAAAAAAAAAAAAAAAAAAAAAAAAAAAAAAAAAAAAAAAAAAAAAAAAAAAAAAAAAAAAAAAAAAAAAAAAAAAAAAAAAAAAAAAAAAAAAAAAAAAAAAAAAAAAAAAAAAAAAAAAAAAAAAAAAAAAAAAAAAAAAAAAAAAAAAAAAAAAAAAAAAAAAAAAAAAAAAAAAAAAAAAAAAAAAAAAAAAAAAAAAAAAAAAAAAAAAAAAAAAAAAAAAAAAAAAAAAAAAAAAAAAAAAAAAAAAAAAAAAAAAAAAAAAAAAAAAAAAAAAAAAAAAAAAAAAAAAAAAAAAAAAAAAAAAAAAAAAAAAAAAAAAAAAAAAAAAAAAAAAAAAAAAAAAAAAAAAAAAAAAAAAAAAAAAAAAAAAAAAAAAAAAAAAAAAAAAAAAAAAAAAAAAAAAAAAAAAAAAAAAAAAAAAAAAAAAAAAAAAAAAAAAAAAAAAAAAAAAAAAAAAAAAAAAAAAAAAAAAAAAAAAAAAAAAAAAAAAAAAAAAAAAAAAAAAAAAAAAAAAAAAAAAAAAAAAAAAAAAAAAAAAAAAAAAAAAAAAAAAAAAAAAAAAAAAAAAAAAAAAAAAAAAAAAAAAAAAAAAAAAAAAAAAAAAAAAAAAAAAAAAAAAAAAAAAAAAAAAAAAAAAAAAAAAAAAAAAAAAAAAAAAAAAAAAAAAAAAAAAAAAAAAAAAAAAAAAAAAAAAAAAAAAAAAAAAAAAAAAAAAAAAAAAAAAAAAAAAAAAAAAAAAAAAAAAAAAAAAAAAAAAAAAAAAAAAAAAAAAAAAAAAAAAAAAAAAAAAAAAAAAAAAAAAAAAAAAAAAAAAAAAAAAAAAAAAAAAAAAAAAAAAAAAAAAAAAAAAAAAAAAAAAAAAAAAAAAAAAAAAAAAAAAAAAAAAAAAAAAAAAAAAAAAAAAAAAAAAAAAAAAAAAAAAAAAAAAAAAAAAAAAAAAAAAAAAAAAAAAAAAAAAAAAAAAAAAAAAAAAAAAAAAAAAAAAAAAAAAAAAAAAAAAAAAAAAAAAAAAAAAAAAAAAAAAAAAAAAAAAAAAAAAAAAAAAAAAAAAAAAAAAAAAAAAAAAAAAAAAAAAAAAAAAAAAAAAAAAAAAAAAAAAAAAAAAAAAAAAAAAAAAAAAAAAAAAAAAAAAAAAAAAAAAAAAAAAAAAAAAAAAAAAAAAAAAAAAAAAAAAAAAAAAAAAAAAAAAAAAAAAAAAAAAAAAAAAAAAAAAAAAAAAAAAAAAAAAAAAAAAAAAAAAAAAAAAAAAAAAAAAAAAAAAAAAAAAAAAAAAAAAAAAAAAAAAAAAAAAAAAAAAAAAAAAAAAAAAAAAAAAAAAAAAAAAAAAAAAAAAAAAAAAAAAAAAAAAAAAAAAAAAAAAAAAAAAAAAAAAAAAAAAAAAAAAAAAAAAAAAAAAAAAAAAAAAAAAAAAAAAAAAAAAAAAAAAAAAAAAAAAAAAAAAAAAAAAAAAAAAAAAAAAAAAAAAAAAAAAAAAAAAAAAAAAAAAAAAAAAAAAAAAAAAAAAAAPZYQA3JkNUPQLy77RI4t0lluwDi7VpLBfnrMI3wiY/XHajNs3MusSYBcfbkzEK0DmpkY8HoynPbjVuIeJIzjhR4R68=</c2pa:manifest></metadata><rect width="360" height="360" fill="#ffffff"/><path fill="#185fa5" fill-rule="evenodd" d="M170.7 359.2C169.2 358.9 168.9 358.2 169.4 355.7C171.3 345.2 173.0 330.5 173.0 324.4C173.0 320.5 173.4 316.0 174.0 314.4C174.5 312.8 175.8 303.9 176.9 294.7C177.9 285.4 179.0 277.6 179.3 277.4C179.6 277.1 180.6 277.4 181.7 278.0C183.7 279.3 184.2 279.0 196.0 271.2C200.9 268.1 203.7 267.1 202.5 269.0C202.2 269.5 199.5 271.6 196.5 273.6C189.5 278.2 188.6 279.5 193.0 278.6C198.1 277.6 208.0 270.7 212.5 265.0C214.7 262.3 217.0 260.0 217.7 260.0C219.8 260.0 220.0 261.7 218.1 264.1C217.1 265.4 215.3 268.3 214.2 270.6C212.3 274.3 205.5 280.0 203.0 280.0C202.4 280.0 199.7 281.1 197.0 282.5C194.3 283.9 190.4 285.3 188.3 285.6C183.8 286.3 183.0 287.3 183.0 292.0C183.0 294.0 181.9 302.4 180.5 310.7C177.5 329.1 178.3 337.0 182.5 329.1C185.9 322.4 190.5 316.5 190.8 318.2C191.0 319.2 188.5 324.4 185.2 329.7C181.7 335.4 178.1 343.0 176.5 348.0C172.8 359.6 172.8 359.7 170.7 359.2ZM111.1 344.8C108.2 343.8 108.5 341.9 113.5 329.1C115.4 324.1 117.0 319.2 117.0 318.3C117.0 317.3 118.1 314.9 119.4 312.9C120.8 310.9 123.7 305.1 126.0 299.9C128.3 294.7 131.3 289.5 132.7 288.4C135.3 286.2 135.0 283.9 131.8 281.2C130.7 280.3 130.5 280.9 130.8 284.2C131.1 287.3 130.9 288.1 129.9 287.8C128.4 287.3 128.2 281.8 129.5 271.5C130.4 263.8 130.4 263.7 129.1 249.7C127.9 237.9 127.9 237.9 130.5 234.9C133.7 231.0 133.8 226.4 130.5 222.0C128.7 219.6 128.0 217.3 128.0 214.3C128.0 210.0 126.1 204.0 123.8 201.3C121.1 198.0 119.8 207.1 122.5 210.6C123.3 211.6 124.0 212.8 124.0 213.1C124.0 214.0 117.6 213.8 117.0 212.9C116.7 212.5 114.5 212.1 112.0 211.9C108.0 211.6 107.5 211.8 107.8 213.5C108.7 218.6 108.8 229.7 108.0 230.9C107.3 232.1 106.9 232.1 105.6 231.1C104.5 230.1 104.1 227.9 104.1 222.7C104.1 218.7 104.1 214.5 104.0 213.2C104.0 212.0 104.0 207.1 104.1 202.2C104.2 197.4 103.7 191.5 103.1 189.1C102.1 185.5 102.1 184.6 103.2 183.9C105.1 182.7 105.9 184.0 107.0 190.1C110.1 206.6 111.5 210.0 115.1 210.0C116.5 210.0 117.0 209.3 117.0 207.4C117.0 206.0 117.5 204.0 118.0 203.0C118.8 201.5 118.4 199.8 116.0 195.5C112.2 188.6 112.2 188.8 116.9 184.3C120.6 180.7 120.8 180.1 121.4 172.8C121.9 165.6 121.8 164.9 119.5 162.1C116.9 159.1 116.9 159.1 119.2 158.8C120.9 158.6 121.6 157.8 121.8 155.5C122.3 149.7 125.5 145.8 126.2 150.0C126.6 152.7 128.4 152.7 128.8 149.9C129.4 146.3 128.1 142.9 126.2 143.1C121.2 143.6 117.0 142.9 117.0 141.6C117.0 139.1 119.3 138.0 121.4 139.6C124.2 141.6 125.7 141.3 127.6 138.5C129.2 136.1 129.1 135.8 127.5 134.0C125.7 132.0 126.1 129.0 128.6 126.9C129.8 125.9 130.3 126.2 131.3 128.9C132.1 131.1 133.1 132.0 134.7 132.0C138.7 132.0 138.6 125.2 134.5 123.6C133.7 123.3 133.0 122.4 133.0 121.5C133.0 120.0 131.9 119.6 129.1 120.0C127.2 120.2 125.9 117.8 127.2 116.3C127.8 115.6 129.4 115.0 130.9 115.0C132.4 115.0 134.5 114.3 135.6 113.5C137.5 112.2 137.9 112.3 139.9 115.1C141.7 117.6 141.9 118.4 140.9 119.6C139.9 120.8 140.0 121.7 141.4 124.1C142.7 126.3 143.0 128.1 142.5 130.8C141.3 137.5 138.8 140.1 137.7 135.9C137.2 134.2 136.8 134.0 135.1 134.9C132.8 136.2 131.4 141.7 132.5 145.8C134.0 151.8 134.5 159.0 133.7 161.2C132.8 163.5 132.8 163.5 131.8 160.7C130.2 156.2 127.6 157.6 126.8 163.5C126.0 170.0 126.9 180.8 128.6 184.2C130.1 187.2 130.5 196.0 129.1 196.0C127.7 196.0 131.6 208.8 136.5 220.5C139.1 226.6 141.8 233.9 142.6 236.8C143.4 239.7 144.7 243.2 145.6 244.5C147.6 247.6 145.8 247.8 143.0 244.8C140.9 242.6 140.3 240.9 139.8 236.0C139.4 232.4 136.3 232.2 135.3 235.7C134.9 237.2 134.5 246.2 134.6 255.5C134.7 273.4 135.2 275.8 140.6 284.1C142.3 286.7 142.3 286.8 138.9 290.3C132.0 297.4 124.7 312.8 116.1 338.1C113.6 345.3 113.4 345.7 111.1 344.8ZM238.6 336.0C239.0 334.1 238.8 333.0 238.1 333.0C236.4 333.0 236.8 330.4 239.0 326.8C240.1 325.0 241.5 321.8 242.1 319.6C243.1 315.9 246.9 311.0 248.8 311.0C249.3 311.0 250.0 311.9 250.3 312.9C250.5 314.0 251.8 315.0 253.1 315.2C255.8 315.5 255.8 315.6 247.4 323.1C244.5 325.6 242.9 328.2 241.6 332.3C239.7 338.5 237.6 341.0 238.6 336.0ZM106.2 311.1C105.4 310.7 104.3 309.2 103.6 307.9C103.0 306.6 101.4 305.4 100.1 305.2C98.3 304.9 97.9 304.4 98.4 302.7C98.7 301.5 99.0 298.6 99.0 296.2C99.0 292.0 99.0 292.0 102.8 292.0C104.9 292.0 107.2 291.4 107.8 290.8C108.8 289.8 109.3 289.8 110.0 291.0C111.3 293.0 110.8 296.6 109.2 296.2C108.6 296.1 107.5 295.9 106.9 295.8C106.3 295.6 105.3 296.3 104.7 297.2C103.8 298.5 104.2 299.9 106.3 303.8C109.9 310.5 109.9 313.5 106.2 311.1ZM59.0 308.5C57.5 306.8 59.0 304.2 65.0 297.6C75.1 286.6 76.0 282.4 70.2 274.6C62.3 264.1 61.2 256.9 66.2 247.5C69.9 240.6 69.8 244.1 68.5 195.2C67.7 163.9 67.7 163.9 70.0 161.5C71.4 160.0 73.5 159.0 75.1 159.0C79.6 159.0 82.6 157.4 83.7 154.3C90.8 134.2 93.1 125.0 93.7 114.5C94.3 102.6 95.9 99.0 100.5 99.0C104.6 99.0 108.8 96.9 109.3 94.7C109.6 93.5 110.2 89.6 110.6 86.0C111.3 80.0 111.7 79.1 116.1 74.5C118.7 71.8 122.0 68.1 123.4 66.4C125.0 64.4 128.2 62.4 132.0 61.0C135.4 59.7 139.1 57.9 140.4 56.9C145.1 53.2 151.2 52.4 160.4 54.3C170.0 56.3 180.2 56.5 186.5 54.9C190.2 54.0 191.7 54.1 194.9 55.3C197.1 56.2 201.9 57.6 205.5 58.5C220.6 62.0 230.7 71.0 239.3 88.3C242.4 94.8 247.0 102.5 249.4 105.4C254.0 111.0 255.3 114.1 256.9 122.5C259.6 136.0 262.1 146.4 263.0 147.5C263.6 148.2 264.7 151.6 265.4 155.1C266.2 158.6 267.5 164.0 268.3 167.0C269.1 170.0 270.3 176.8 270.9 182.0C271.6 187.2 272.8 195.0 273.6 199.3C274.4 203.5 275.0 209.4 275.0 212.3C275.0 215.7 275.9 219.3 277.5 222.9C278.9 225.8 280.7 231.4 281.5 235.3C282.3 239.2 284.0 244.0 285.3 245.9C289.4 252.3 290.2 255.4 289.5 262.3C288.6 270.7 289.2 271.8 299.8 278.9C308.0 284.4 315.0 290.9 315.0 293.0C315.0 295.6 312.4 295.0 309.6 291.8C307.9 289.9 302.3 285.4 297.1 281.9C285.0 273.8 283.7 271.7 284.5 262.4C285.2 255.0 284.6 252.6 280.3 245.9C279.0 244.0 277.3 239.2 276.5 235.3C275.7 231.4 273.9 225.8 272.5 222.9C270.9 219.3 270.0 215.7 270.0 212.3C270.0 209.4 269.4 203.5 268.6 199.3C267.8 195.0 266.6 187.2 265.9 182.0C265.3 176.8 264.1 170.0 263.3 167.0C262.5 164.0 261.2 158.6 260.4 155.1C259.7 151.6 258.6 148.2 258.0 147.5C257.1 146.4 254.6 136.0 251.9 122.5C250.3 114.1 249.0 111.0 244.3 105.3C241.8 102.2 238.2 96.5 236.3 92.6C229.8 79.2 228.5 76.8 226.3 74.6C222.0 70.3 212.2 65.0 205.5 63.5C201.9 62.6 197.1 61.2 194.9 60.3C191.7 59.1 190.2 59.0 186.5 59.9C180.2 61.5 170.0 61.3 160.4 59.3C151.2 57.4 145.1 58.2 140.4 61.9C139.2 62.9 136.0 64.5 133.3 65.5C130.1 66.7 126.5 69.4 122.6 73.4C116.7 79.5 116.6 79.6 115.4 88.0C114.2 95.7 113.8 96.8 110.6 99.7C108.4 101.7 105.6 103.2 103.2 103.6C99.3 104.2 99.3 104.2 98.7 114.9C98.3 123.6 97.4 127.6 94.2 137.5C92.0 144.1 89.7 151.4 89.1 153.7C87.6 159.1 83.4 162.7 77.4 163.6L72.7 164.3L73.5 195.4C74.8 244.1 74.9 240.5 71.1 247.8C66.2 257.1 67.5 264.9 75.9 275.4C81.0 281.8 79.7 287.2 70.6 297.0C68.8 298.9 65.7 302.6 63.8 305.2C60.8 309.3 60.0 309.8 59.0 308.5ZM224.6 286.4C221.3 283.2 222.6 282.3 227.7 284.2C232.4 285.9 233.9 284.1 234.3 276.4C234.7 269.8 236.6 266.9 242.4 264.0C245.3 262.5 245.5 262.1 245.2 257.8C244.9 252.3 245.9 251.3 249.3 254.0C250.7 255.1 252.3 256.0 252.9 256.0C254.7 256.0 256.2 250.9 255.5 246.8C254.9 243.2 256.6 237.0 258.1 237.0C259.4 237.0 260.8 239.6 261.9 243.7C262.5 246.0 263.5 248.2 264.0 248.5C265.5 249.4 265.2 251.0 263.5 251.0C259.7 251.0 257.0 253.3 257.0 256.6C257.0 258.9 256.5 260.0 255.2 260.5C253.3 261.0 247.6 267.4 245.4 271.3C244.7 272.6 244.1 272.9 243.6 272.1C242.6 270.5 238.0 270.7 237.4 272.4C237.1 273.2 237.6 274.9 238.5 276.3C242.5 282.4 229.8 291.6 224.6 286.4ZM267.6 280.2C268.0 279.3 268.5 276.8 268.8 274.7C269.1 271.8 269.8 270.6 271.6 269.9C273.0 269.4 274.3 268.4 274.6 267.6C275.5 265.2 284.0 270.6 284.0 273.6C284.0 275.7 283.6 275.9 281.6 275.4C278.8 274.7 276.1 276.0 272.6 279.5C269.6 282.5 266.4 282.9 267.6 280.2ZM215.0 250.3C215.0 250.0 216.2 248.1 217.6 246.2C220.0 243.2 220.2 242.3 219.4 239.1C218.4 235.5 219.3 232.4 225.7 215.5C226.6 213.3 227.4 208.1 227.5 204.0C227.7 199.9 228.3 193.6 228.8 190.0C229.4 186.4 229.8 182.2 229.7 180.5C229.5 177.6 229.7 177.5 234.1 177.2C239.9 176.8 241.2 179.4 237.4 183.5C234.6 186.6 234.2 190.8 236.8 191.6C242.4 193.4 242.7 193.7 239.8 194.8C236.2 196.3 233.3 201.7 234.9 204.2C235.5 205.2 236.0 206.8 236.0 207.9C236.0 208.9 236.7 210.3 237.5 211.0C238.8 212.1 238.5 212.7 235.5 215.8C233.6 217.8 232.0 220.2 232.0 221.1C232.0 222.0 231.1 223.5 230.0 224.5C225.7 228.4 229.6 232.3 235.0 229.5C237.4 228.2 238.0 227.3 238.0 224.5C238.0 220.6 241.4 217.3 243.6 219.1C244.5 219.8 245.5 219.8 246.9 219.1C251.3 216.7 254.0 221.8 250.2 225.3C247.9 227.4 247.1 227.4 244.8 225.3C242.5 223.2 240.5 224.8 240.5 228.8C240.5 231.1 240.0 231.5 236.9 232.0C231.7 232.9 227.6 236.2 224.2 242.4C222.5 245.3 220.4 248.5 219.5 249.4C217.9 251.0 215.0 251.6 215.0 250.3ZM179.0 223.2C179.0 221.4 182.5 218.0 184.5 217.9C188.3 217.5 196.5 218.2 195.0 218.6C194.2 218.9 191.7 220.0 189.4 221.1C184.2 223.5 179.0 224.6 179.0 223.2ZM162.0 216.1C162.0 213.8 166.3 210.0 169.1 210.0C170.7 210.0 173.8 209.3 176.0 208.4C178.5 207.4 181.2 207.0 183.4 207.4C185.3 207.8 187.9 207.6 189.2 207.0C192.2 205.6 202.4 207.9 202.8 210.1C203.0 211.3 200.6 211.5 188.2 211.5C174.0 211.5 173.2 211.6 168.1 214.2C162.2 217.3 162.0 217.4 162.0 216.1ZM185.0 197.8C185.0 194.2 185.4 193.0 186.5 193.0C187.3 193.0 188.0 192.3 188.0 191.5C188.0 190.7 188.8 190.0 189.8 190.0C191.8 190.0 195.0 187.1 195.0 185.2C195.0 184.6 193.9 181.5 192.5 178.4C191.1 175.3 190.0 171.3 190.0 169.5C190.0 167.8 189.1 162.8 188.0 158.5C186.9 154.2 186.0 150.4 186.0 150.0C186.0 149.6 188.4 148.5 191.2 147.5C194.1 146.6 196.9 145.5 197.5 145.0C199.5 143.4 205.1 142.8 206.6 144.0C208.3 145.5 206.8 148.0 204.1 148.0C203.2 148.0 200.7 149.1 198.5 150.3C193.6 153.0 192.2 158.5 194.5 166.0C198.3 178.4 198.3 178.6 196.9 182.3C195.9 185.3 195.9 186.4 196.9 188.7C198.2 191.5 198.2 191.5 199.3 189.2C201.2 185.1 204.0 187.1 204.0 192.5C204.0 195.8 202.6 196.3 200.5 194.0C198.1 191.3 197.3 191.5 196.5 194.9C195.5 199.5 193.7 200.4 191.2 197.5C188.5 194.4 187.0 194.3 187.0 197.2C187.0 198.5 186.5 200.2 186.0 201.0C185.3 202.1 185.0 201.2 185.0 197.8ZM161.7 198.4C160.5 197.2 168.3 183.0 170.2 183.0C171.9 183.0 170.2 188.1 166.4 193.8C162.8 199.2 162.7 199.4 161.7 198.4ZM127.3 192.1C126.6 186.6 126.2 186.0 124.1 186.0C121.7 186.0 118.0 189.7 118.0 192.1C118.0 194.7 121.5 196.7 124.9 196.2C127.7 195.8 127.8 195.6 127.3 192.1ZM175.2 192.8C174.4 192.0 174.3 191.3 175.1 190.3C176.7 188.4 180.4 188.7 182.4 190.9C184.0 192.6 183.9 192.8 180.9 193.4C176.7 194.2 176.6 194.2 175.2 192.8ZM227.5 168.8C227.3 168.1 226.9 165.2 226.7 162.5C226.0 155.1 223.5 145.4 220.2 137.6C216.1 128.1 216.9 126.1 223.4 130.2C225.9 131.9 226.9 133.2 227.0 135.1C227.0 137.8 229.5 143.6 231.1 144.5C232.5 145.5 232.2 149.8 230.5 150.7C229.7 151.2 228.8 153.0 228.4 154.7C227.9 157.3 228.2 158.1 230.9 160.1C234.5 162.7 234.8 165.2 232.0 168.0C229.7 170.3 228.1 170.6 227.5 168.8ZM154.0 161.5C152.4 160.6 150.9 160.5 149.8 161.1C148.1 162.0 145.0 161.4 145.0 160.1C145.0 159.5 150.2 157.8 156.5 156.4C158.2 156.0 160.1 155.3 160.8 154.7C161.7 154.0 162.4 154.0 163.2 154.8C164.1 155.7 164.1 156.0 163.2 156.0C162.5 156.0 162.0 156.8 162.0 157.9C162.0 161.4 157.6 163.4 154.0 161.5ZM203.0 159.5C201.8 158.0 201.8 157.6 203.4 156.4C205.6 154.9 213.2 155.0 213.7 156.6C214.7 159.7 205.2 162.2 203.0 159.5ZM242.0 151.1C244.1 149.4 244.3 148.9 243.2 146.6C242.6 145.2 241.4 144.0 240.5 144.0C239.6 144.0 239.0 143.1 239.0 141.5C239.0 140.0 238.1 138.4 236.5 137.4C235.1 136.5 234.0 134.9 234.0 133.9C234.0 132.9 233.6 131.8 233.0 131.5C231.7 130.7 231.7 127.3 233.0 126.5C236.4 124.4 239.0 128.3 240.5 138.3C240.9 141.1 241.7 142.3 243.5 143.0C247.7 144.6 248.6 147.7 245.5 150.6C244.1 151.9 242.1 153.0 241.2 153.0C239.9 153.0 240.0 152.6 242.0 151.1ZM212.8 123.9C211.5 123.2 211.0 121.7 211.0 118.7C211.0 113.4 212.1 111.7 215.1 112.2C217.1 112.5 217.5 112.0 217.8 109.3C218.2 105.1 225.9 96.1 227.2 98.3C228.3 100.4 227.1 103.0 224.5 104.0C223.1 104.5 221.9 106.1 221.5 107.9C221.0 110.5 221.4 111.4 224.9 114.9C227.2 117.2 229.0 119.7 229.0 120.5C229.0 122.2 226.4 122.5 225.5 120.9C223.2 117.3 217.0 118.4 217.0 122.5C217.0 125.1 215.6 125.6 212.8 123.9ZM153.2 118.0C152.0 117.5 151.0 116.5 151.0 115.9C151.0 115.2 149.8 115.0 147.5 115.4C143.6 116.2 143.0 115.2 146.0 112.5C147.1 111.5 148.0 109.9 148.0 109.0C148.0 107.9 149.4 106.9 152.2 106.1C154.6 105.4 158.2 103.7 160.2 102.3C163.1 100.3 164.2 100.1 165.9 100.9C169.0 102.6 173.5 102.2 176.3 100.0C179.5 97.5 181.0 97.5 181.0 100.0C181.0 102.6 183.9 104.0 189.3 104.0C194.3 104.0 196.5 102.2 195.5 99.0C195.0 97.3 195.6 96.6 199.4 95.0C203.7 93.1 203.9 92.7 204.2 88.4L204.5 83.9L208.0 86.8L211.4 89.7L208.3 91.3C204.1 93.5 203.7 95.3 206.7 98.1C210.2 101.5 209.4 108.2 204.8 112.3L201.7 115.2L198.4 111.6C196.0 108.9 194.3 108.0 192.0 108.0C190.3 108.0 187.6 107.3 185.9 106.5C182.1 104.5 174.2 105.4 168.0 108.5C164.5 110.3 163.0 110.6 161.6 109.8C158.8 108.2 154.8 110.4 155.2 113.3C155.5 115.5 156.9 115.9 160.2 114.5C162.7 113.5 162.6 116.6 160.1 118.0C157.8 119.2 156.3 119.2 153.2 118.0ZM205.2 105.0C206.1 100.5 204.4 98.5 200.8 99.9C197.1 101.3 196.7 102.5 198.5 106.0C200.7 110.4 204.2 109.8 205.2 105.0Z"/></svg>
